<?xml version="1.0" encoding="utf-8"?>
<!DOCTYPE svg PUBLIC "-//W3C//DTD SVG 1.1//EN" "http://www.w3.org/Graphics/SVG/1.1/DTD/svg11.dtd">
<svg version="1.1" xmlns="http://www.w3.org/2000/svg" xmlns:xlink="http://www.w3.org/1999/xlink" x="0px" y="0px"
	 width="395.569px" height="437.679px" viewBox="0 0 395.569 437.679" enable-background="new 0 0 395.569 437.679"
	 xml:space="preserve">
<g id="Layer_1">
</g>
<g id="Layer_2">
	<path fill="#FFFFFF" stroke="#000000" stroke-width="2" d="M158.403,105.889c-0.977-1.125-2.526-1.385-3.767-2.098
		c-1.649-0.948-3.345-1.875-5.203-2.344c-4.396-1.111-8.911-1.864-13.125-3.595c-3.789-1.557-7.881-2.101-11.919-2.585
		c-4.527-0.544-8.937-1.739-13.366-2.781c-8.735-2.053-17.629-3.307-26.498-4.616c-8.8-1.299-17.739-1.168-26.541-2.448
		c-3.543-0.516-7.099-1.468-10.121-3.454c-3.248-2.134-5.594-5.357-8.829-7.508c-2.75-1.828-6.102,0.745-7.22,3.296
		c-1.51,3.443,0.971,6.576,4.012,8.012c3.511,1.656,6.463,3.938,9.74,5.959c3.485,2.151,7.406,3.061,11.304,4.144
		c8.466,2.353,16.585,5.744,24.874,8.628c4.821,1.678,9.899,3.564,14.967,4.245c5.578,0.75,10.933,2.449,16.521,3.215
		c5.908,0.811,11.74,0.754,17.665,1.251c6.099,0.511,12.216,0.89,18.339,0.845"/>
	<path fill="#FFFFFF" stroke="#000000" stroke-width="2" d="M395.069,68.555c-9.638,0.003-18.091-4.177-27.869-2.134
		c-10.384,2.169-20.801,4.689-30.66,8.616c-9.46,3.769-18.231,5.687-28.464,5.087c-11.001-0.645-22.191-0.779-33.108-2.285
		c-21.938-3.026-43.893-6.195-65.58-10.701c-10.784-2.241-20.39-3.457-31.407-2.29c-11.318,1.199-22.501,4.228-33.846,4.922
		c-22.324,1.367-44.763,1.641-67.068,3.306c-5.227,0.39-10.385,1.354-15.529,2.32c-2.575,0.483-5.149,0.968-7.736,1.384
		c-1.979,0.318-3.875,1.213-5.85,1.313c-4.482,0.227-8.895,0.813-13.347,1.303c-2.434,0.268-4.88,0.457-7.33,0.463
		c-1.184,0.003-2.368-0.036-3.547-0.135c-0.951-0.08-1.456-0.433-2.323-0.758c-1.054-0.395-2.318-0.856-3.439-1.219
		c-1.516-0.491-3.045-1.298-4.502-1.592c-2.342-0.472-4.126,1.132-5.792,2.44c-1.82,1.43-2.452,3.89-2.717,6.081
		c-0.5,4.134,1.573,7.643,4.812,10.063c8.108,6.058,19.946,7.195,29.69,8.049c28.174,2.471,55.967,0.372,83.821,7.253
		c8.934,2.207,17.318,5.921,26.152,8.409c6.546,1.843,15.406,1.253,19.573,7.639c4.607,7.058,6.223,15.99,11.752,22.526
		c2.301,2.721,5.376,4.61,7.962,7.027c2.793,2.609,3.562,5.65,5.343,8.863c6.349,11.45,21.684,12.769,32.898,16.267
		c17.137,5.346,35.289,0.613,51.976-4.299c17.803-5.24,34.433-8.572,52.917-10.164c21.312-1.836,42.371-0.258,63.719-0.258"/>
	<path fill="#FFFFFF" stroke="#000000" stroke-width="2" d="M183.069,72.055c-2.575,0.596-4.997,2.812-5.585,5.429
		c-2.928,1.744-5.101,4.26-7.205,6.887c-4.728,5.902-10.905,9.943-16.263,15.183c-4.679,4.577-7.861,11.052-13.314,14.814
		c-5.625,3.882-10.308,8.981-13.43,15.146c-15.299,30.209,40.041,38.374,58.051,38.814c3.408,0.083,6.745-0.66,10.072-1.294
		c3.102-0.591,5.715-0.092,8.839,0.041c1.895,0.081,3.725-0.243,5.612-0.246c1.742-0.003,3.461,0.525,4.975,1.351
		c0.392,0.213,0.629,0.394,1.122,0.418c1.115,0.056,2.327-0.04,3.317-0.604c1.233-0.702,2.581-1.858,3.077-3.234
		c0.443-1.227,0.378-2.774-0.173-3.974c-0.204-0.444-0.504-0.878-0.896-1.175c-0.415-0.314-0.605-0.593-0.91-1.036
		c-0.652-0.949-1.491-1.77-2.338-2.547c-0.893-0.818-1.681-1.727-2.822-2.203c-1.263-0.527-2.521-1.136-3.835-1.524
		c-2.938-0.867-5.991-1.272-9.006-1.771c-5.81-0.962-12.283-2.216-15.788-7.473c-13-19,22-26,34.562-35.312"/>
	<path fill="#FFFFFF" stroke="#000000" stroke-width="2" d="M179.069,86.555c-5.659,2.425-6.363,11.85-8.249,16.845
		c-2.988,7.918-7.205,15.19-9.089,23.512c-0.886,3.915-1.289,7.884-1.933,11.838c-0.676,4.158-1.604,8.288-1.926,12.497
		c-0.438,5.718,1.211,9.461,6.771,11.5c4.516,1.656,9.426,1.909,14.176,2.263c7.413,0.552,14.663,2.61,22.114,2.727
		c3.794,0.06,7.494-0.478,10.969-2.042c3.071-1.381,5.847-3.384,8.948-4.637c2.514-1.016,4.895-2.532,7.403-3.633
		c1.438-0.631,2.948-0.92,4.385-1.542c2.033-0.881,4.225-0.788,6.266-1.557c1.937-0.73,3.546-1.72,3.945-3.868
		c0.208-1.118,0.461-3.653-1.143-3.924c1.689-0.072,3.962,1.094,5.636,1.477c1.976,0.452,3.489,1.525,5.097,2.705
		c3.658,2.685,7.666,5.317,11.752,7.3c5.82,2.825,12.658,4.224,18.998,5.301c12.043,2.045,28.928,3.026,37.379-7.762"/>
	<path fill="#FFFFFF" stroke="#000000" stroke-width="2" d="M99.569,120.722c-0.034-9.313-1.018-18.356-0.358-27.713
		c0.56-7.957,2.381-15.692,2.611-23.729c0.117-4.094,1.026-7.824,1.981-11.784c1.181-4.899,0.641-8.494-0.115-13.36
		c-0.893-5.74-2.153-12.662-7.518-4.555c-3.855,5.824-10.175,12.213-10.838,19.453c-0.469,5.117-0.497,9.54-1.939,14.534
		c-1.214,4.201-2.357,8.292-2.801,12.659c-0.854,8.396-1.529,16.436-1.521,24.847c0.009,8.92-3.121,18.665,0.833,26.815"/>
	<path fill="#FFFFFF" stroke="#000000" stroke-width="2" d="M0.569,340.222c3.361-2.325,6.712-4.306,9.708-7.12
		c1.494-1.403,2.891-3.119,4.454-4.457c2.076-1.777,4.82-3.224,7.181-4.563c2.305-1.309,4.01-3.4,6.125-5.059
		c1.848-1.448,3.511-3.112,5.276-4.656c1.406-1.23,3.263-2.104,4.562-3.355c2.628-2.528,3.657-7.599,4.17-11.021
		c0.719-4.799,0.887-9.668,0.734-14.514c-0.302-9.602-1.867-19.099-3.231-28.59c-1.51-10.5-2.791-21.031-4.048-31.564
		c-1.364-11.428-4.118-23.246-3.434-34.791c0.579-9.762,4.86-18.693,8.58-27.571c4.25-10.142,6.889-20.278,9.264-30.972
		c2.316-10.429,5.222-20.713,7.926-31.045c2.893-11.049,4.591-22.475,7.918-33.389c2.756-9.042,6.442-17.625,8.181-26.953
		c0.74-3.969,1.493-8,3.158-11.707c1.867-4.158,5.928-7.129,6.106-11.951c0.07-1.89-0.449-3.817-0.754-5.669
		c-0.082-0.496-0.062-1.163-0.245-1.626c-0.137-0.348-0.456-0.637-0.636-0.981c-0.41-0.78-0.565-1.674-0.483-2.549
		c0.05-0.529,0.208-1.108,0.486-1.561c0.89-1.446,2.188-2.992,3.903-3.379c4.649-1.049,10.947,2.734,13.61,6.36
		c5.243,7.137,4.197,17.948,4.432,26.251c0.29,10.219-4.004,19.974-4.852,30.253c-1.578,19.135-9.99,37.655-5.52,57.187
		c1.847,8.068,6.438,14.57,10.194,21.779c2.984,5.726,6.177,12.982,11.995,16.395c3.596,2.109,6.701,4.511,10.159,6.826
		c3.916,2.622,8.86,3.376,12.618,6.226c5.699,4.322,4.782,12.306,5.331,18.61c0.8,9.181,5.957,17.209,8.147,26.041
		c2.729,11.002,2.96,22.903,2.701,34.176c-0.21,9.143-0.449,18.71-3.426,27.45c-3.248,9.54-7.445,18.131-11.413,27.325
		c-7.901,18.304-17.206,35.09-28.813,51.195c-2.429,3.37-4.494,6.989-7.001,10.306c-2.641,3.493-6.091,5.93-9.059,9.085
		c-6.132,6.521-13.387,11.903-20.257,17.646c-14.882,12.438-23.42,30.582-38.916,42.601"/>
	<path fill="#FFFFFF" stroke="#000000" stroke-width="2" d="M49.069,191.389c1.494-5.294,6.765-10.715,9.403-15.632
		c3.986-7.428,9.604-14.192,12.415-22.203c4.177-11.901,12.927-22.554,19.563-33.237c3.438-5.536,8.562-9.897,15.402-7.328
		c7.275,2.734,10.559,9.708,16.105,14.519c9.991,8.667,16.627,20.056,25.682,29.491c2.908,3.031,5.677,6.396,7.646,10.123
		c1.445,2.735,1.427,5.679,2.636,8.432c1.067,2.428,3.157,4.231,4.357,6.586c0.325,0.638,0.677,1.283,1.346,1.592
		c0.686,0.316,1.213,0.904,1.921,1.166c0.6,0.221,1.144,0.463,1.683,0.845c0.364,0.257,0.793,0.445,1.109,0.775
		c1.094,1.138,1.983,2.816,1.971,4.414c-0.014,1.557-0.496,3.14-1.132,4.55c-3.062,6.795-11.196,4.509-16.516,2.492
		c-5.935-2.25-10.21-4.535-13.204-10.329c-2.374-4.596-2.931-12.95-7.612-15.515c-5.779-3.167-13.375-3.417-19.3-0.432
		c-2.82,1.421-5.296,3.841-7.279,6.26c-1.612,1.967-2.167,5.032-4.195,6.599"/>
	<path fill="#FFFFFF" stroke="#000000" stroke-width="2" d="M80.569,183.389c4.86-2.842,7.209-8.825,8.682-13.851
		c1.786-6.096,4.495-11.553,8.626-16.382c3.629-4.243,6.862-10.98,12.746-12.291c7.297-1.625,11.55,1.616,17.028,6.031
		c8.516,6.86,21.494,13.251,24.854,24.397c1.873,6.214,1.393,12.883,1.858,19.275c0.454,6.227,4.719,14.633-4.586,15.816
		c-6.388,0.812-11.336-1.99-15.258-6.934c-1.845-2.325-2.157-4.516-2.409-7.402c-0.161-1.508-0.566-2.948-1.215-4.319
		c-0.445-1.19-0.373-2.885-1.123-3.922c-0.688-0.951-2.104-1.876-2.98-2.697c-1.817-1.701-3.252,1.602-4.389,2.916
		c-2.79,3.222-1.696,5.377-1.551,9.34c0.304,8.322,2.19,16.455,2.041,24.853c-0.118,6.609,0.869,12.927,1.014,19.504
		c0.155,6.985,4.009,13.795,4.734,20.882c0.63,6.165-0.627,12.349,0.838,18.435c1.542,6.398-1.54,13.786,1.258,19.849"/>
</g>
<g id="Layer_3">
	<path fill="none" stroke="#000000" stroke-width="2" d="M241.694,152.555c1.106-1.069,1.662-3.757,0.742-5.047
		c-1.26-1.767-4.609-1.91-6.535-2.317c-2.866-0.605-5.208-2.46-8.084-3.119c-2.964-0.679-6.515-1.194-8.877-3.294
		c-2.217-1.971-2.77-5.045-4.389-7.424c-2.124,2.143-2.3,5.487-4.979,7.198c-2.372,1.513-5.29,2.24-7.424,4.125
		c-0.127,0.112,1.515,0.727,1.756,0.737c2.101,0.094,4.112-0.762,5.977-1.611c3.318-1.511,6.624-2.363,10.313-2.374"/>
	<path fill="none" stroke="#000000" d="M189.569,132.93c1.607,2.857,2.036,7.665,5.574,8.954c1.643,0.598,3.415,0.322,5.112,0.506
		c3.218,0.35,2.541,2.81,4.688,4.165"/>
	<path fill="none" stroke="#000000" d="M183.569,151.055c4.838-1.117,9.191-5.017,10.375-9.875"/>
	<path fill="none" stroke="#000000" d="M214.819,130.805c-0.867-3.02,0.187-5.936,1.25-8.75"/>
	<path fill="none" stroke="#000000" d="M221.069,131.055c-1.857,0.257-3.584,0.515-5.5,0.5"/>
	<path fill="none" stroke="#000000" stroke-width="0.75" d="M189.944,132.805c0.193-1.669-0.582-3.191-0.875-4.75"/>
	<path fill="none" stroke="#000000" stroke-width="0.75" d="M151.236,144.472c2.08,0.073,5.992-1.004,7.5-2.417"/>
	<path fill="none" stroke="#000000" d="M108.069,137.805c0.687,0.126,2.52,1.887,2.5,2.75"/>
	<path fill="none" stroke="#000000" d="M111.319,193.555c0.849-0.934,2.212-1.311,3.148-2.224c0.633-0.618,1.007-1.603,1.629-2.251
		c0.955-0.996,3.092-2.438,4.473-2.399"/>
	<path fill="none" stroke="#000000" d="M126.194,169.18c0.011,3.492,2.609,8.773-0.875,11.5"/>
	<path fill="none" stroke="#000000" d="M129.444,183.055c3.332,0,7.626,1.437,10.625-1"/>
</g>
<g id="Layer_4">
	<path fill="#DEDFE0" stroke="#000000" stroke-width="0.75" d="M163.389,179.957c-0.767-0.464-5.59-5.78-5.875-5.424
		c-1.67,2.08,2.654,6.623,3.714,8.207c0.973,1.451,2.326,2.588,3.455,3.905c1.076,1.257,1.91,1.453,3.235,0.047
		c1.131-1.2-0.887-2.692-1.633-3.458C165.334,182.263,164.54,180.652,163.389,179.957"/>
	<path fill="#DEDFE0" stroke="#000000" stroke-width="0.75" d="M21.219,76.875c1.593,0.428,3.211,0.753,4.813,1.141
		c1.326,0.321,2.458,0.849,3.785,1.165c0.84,0.2,0.273,0.488-0.202,0.859c-0.45,0.352-0.951,0.58-1.438,0.86
		c-0.606,0.348-1.019,0.757-1.691,0.937c-0.802,0.213-1.636,0.302-2.466,0.29c-2.032-0.03-4.438,0.613-6.406,0.117
		c-1.14-0.288-2.582-0.679-3.587-1.294c-0.914-0.559-1.194-1.653-1.348-2.644c-0.13-0.833-0.503-3.299,0.825-3.312
		c0.701-0.007,1.394,0.266,2.063,0.374c1.073,0.172,2.187,0.417,3.244,0.662C19.631,76.218,20.391,76.652,21.219,76.875z"/>
	<path fill="#DEDFE0" stroke="#000000" stroke-width="0.75" d="M38.734,75.21c0.158,0.326,0.294,0.653,0.377,0.924
		c0.209,0.681,0.119,1.372,0.889,1.705c1.559,0.673,4.148,0.216,5.816,0.216c0.997,0,2.306,0.154,3.239-0.181
		c0.077-0.951-2.63-1.618-3.308-1.94c-1.986-0.943-4.046-1.723-6.01-2.714c-0.79-0.398-1.589-0.251-2.413-0.024
		c0.159,0.359,0.54,0.564,0.778,0.909C38.306,74.397,38.537,74.803,38.734,75.21z"/>
	<path fill="#DEDFE0" stroke="#000000" stroke-width="0.75" d="M84.243,17.604c-0.42,1.699-1.15,3.367-2.035,4.892
		c-0.53,0.913-1.586,1.963-2.697,2.053c-0.032-1.308,0.044-2.642-0.004-3.919c-0.007,0.069-0.016,0.207-0.014,0.257
		c-0.108-2.239-0.049-4.41-0.049-6.638c0-1.537-0.063-3.096-0.014-4.627c0.063-2.006,0.713-3.988,3.076-3.878
		c0.858,0.04,1.229,0.567,1.576,1.236c0.596,1.152,1.171,2.308,1.286,3.616c0.123,1.396-0.049,2.824-0.298,4.198
		C84.902,15.722,84.463,16.709,84.243,17.604z"/>
	<path fill="#DEDFE0" stroke="#000000" stroke-width="0.75" d="M231.917,156.124c-0.302-0.586,0.779-0.564,1.219-0.758
		c1.445-0.638,2.726-1.566,4.062-2.397c1.107-0.688,2.366-1.771,3.772-1.484c0.639,0.13,1.475,0.931,1.18,1.658
		c-0.464,1.143-2.423,1.739-3.499,1.997C237.812,155.339,232.356,156.977,231.917,156.124z"/>
	<path fill="#DEDFE0" stroke="#000000" stroke-width="0.75" d="M216.195,167.791c-0.804,1.741-5.062,1.199-6.647,1.044
		c-1.271-0.124-2.692-0.137-3.926-0.475c-0.921-0.252-1.69-0.783-2.691-0.807c0.621,0.218,1.458,0.083,2.139,0.085
		c0.992,0.002,2.351-0.271,3.32-0.496c1.946-0.452,3.873-1.348,5.705-2.129c0.463-0.197,0.978-0.78,1.498-0.46
		c0.436,0.268,0.379,1.228,0.538,1.653C216.381,166.875,216.378,167.393,216.195,167.791z"/>
</g>
<g id="Layer_5">
	<path fill="none" stroke="#000000" stroke-width="0.25" d="M65.069,92.555c-0.919-1.535-1.801-3.664-3.5-4.5"/>
	<path fill="none" stroke="#000000" stroke-width="0.25" d="M57.069,105.555c1.578,0.297,3.049-0.043,4-1"/>
	<path fill="none" stroke="#000000" stroke-width="0.25" d="M60.569,92.055c2.015,0.595,2.854,2.564,3.5,4.5"/>
	<path fill="none" stroke="#000000" stroke-width="0.25" d="M57.569,102.055c1.404,0.963,3.229,0.359,4.5-1"/>
	<path fill="none" stroke="#000000" stroke-width="0.25" d="M106.569,118.555c0.81-1.033,1.367-2.544,1.5-4"/>
	<path fill="none" stroke="#000000" stroke-width="0.25" d="M93.069,118.555c-0.143,1.188,0.399,2.064,1.5,2.5"/>
	<path fill="none" stroke="#000000" stroke-width="0.25" d="M107.569,121.555c1.004-0.832,1.773-2.171,2-3.5"/>
	<path fill="none" stroke="#000000" stroke-width="0.25" d="M90.569,121.555c0.583,0.977,1.523,1.917,2.5,2.5"/>
	<path fill="none" stroke="#000000" stroke-width="0.25" d="M104.569,145.555c0.623,1.952,2.884,2.83,4.5,4"/>
	<path fill="none" stroke="#000000" stroke-width="0.25" d="M127.069,150.555c0.224-1.286,0.032-2.717-0.5-3.5"/>
	<path fill="none" stroke="#000000" stroke-width="0.25" d="M102.569,148.555c1.936,1.017,3.322,2.77,5,4"/>
	<path fill="none" stroke="#000000" stroke-width="0.25" d="M129.569,152.555c-0.094-1.301-0.233-2.272-0.5-3.5"/>
</g>
</svg>
